<svg xmlns="http://www.w3.org/2000/svg" xmlns:xlink="http://www.w3.org/1999/xlink" width="567" zoomAndPan="magnify" viewBox="0 0 425.25 283.500005" height="378" preserveAspectRatio="xMidYMid meet" version="1.0"><defs><g/><clipPath id="5a335856f2"><path d="M 0 70 L 424.5 70 L 424.5 267 L 0 267 Z M 0 70 " clip-rule="nonzero"/></clipPath><clipPath id="d1415ea152"><path d="M 0 0.675781 L 424.5 0.675781 L 424.5 196.648438 L 0 196.648438 Z M 0 0.675781 " clip-rule="nonzero"/></clipPath><clipPath id="c6ae8bbf3a"><rect x="0" width="425" y="0" height="197"/></clipPath><clipPath id="f75f3aab57"><rect x="0" width="425" y="0" height="197"/></clipPath></defs><g clip-path="url(#5a335856f2)"><g transform="matrix(1, 0, 0, 1, 0, 70)"><g clip-path="url(#f75f3aab57)"><g clip-path="url(#d1415ea152)"><g transform="matrix(1, 0, 0, 1, 0, 0.000000000000028422)"><g clip-path="url(#c6ae8bbf3a)"><g fill="#222222" fill-opacity="1"><g transform="translate(-4.153293, 147.22767)"><g><path d="M 144 -136.953125 L 144 0 L 19.765625 0 C 15.984375 0 12.722656 -1.332031 9.984375 -4 C 7.242188 -6.675781 5.875 -9.972656 5.875 -13.890625 L 5.875 -49.5 C 5.875 -54.0625 7.078125 -58.332031 9.484375 -62.3125 C 11.898438 -66.289062 15.195312 -69.390625 19.375 -71.609375 L 126.78125 -127.375 L 15.65625 -81.390625 C 14.476562 -80.867188 13.300781 -80.707031 12.125 -80.90625 C 10.957031 -81.101562 9.914062 -81.523438 9 -82.171875 C 8.082031 -82.828125 7.332031 -83.675781 6.75 -84.71875 C 6.164062 -85.757812 5.875 -86.929688 5.875 -88.234375 L 5.875 -136.953125 Z M 139.109375 -130.109375 L 49.3125 -29.734375 C 47.21875 -27.390625 45.78125 -25.269531 45 -23.375 C 44.21875 -21.488281 44.804688 -19.632812 46.765625 -17.8125 C 48.066406 -16.757812 49.238281 -16.234375 50.28125 -16.234375 C 51.582031 -16.234375 52.820312 -16.753906 54 -17.796875 C 55.175781 -18.847656 56.285156 -20.023438 57.328125 -21.328125 Z M 139.109375 -130.109375 "/></g></g></g><g fill="#222222" fill-opacity="1"><g transform="translate(138.867067, 147.22767)"><g><path d="M 142.234375 -117.59375 L 119.9375 -113.09375 C 123.070312 -113.09375 125.972656 -112.695312 128.640625 -111.90625 C 131.316406 -111.125 133.664062 -109.882812 135.6875 -108.1875 C 137.707031 -106.5 139.300781 -104.382812 140.46875 -101.84375 C 141.644531 -99.300781 142.234375 -96.265625 142.234375 -92.734375 L 142.234375 -47.34375 C 142.234375 -43.957031 141.644531 -40.859375 140.46875 -38.046875 C 139.300781 -35.242188 137.707031 -32.863281 135.6875 -30.90625 C 133.664062 -28.957031 131.316406 -27.425781 128.640625 -26.3125 C 125.972656 -25.207031 123.070312 -24.65625 119.9375 -24.65625 L 142.234375 -19.5625 L 142.234375 0 L 5.875 0 L 5.875 -19.5625 L 28.171875 -24.65625 C 25.171875 -24.65625 22.300781 -25.273438 19.5625 -26.515625 C 16.820312 -27.753906 14.441406 -29.382812 12.421875 -31.40625 C 10.398438 -33.425781 8.800781 -35.804688 7.625 -38.546875 C 6.457031 -41.285156 5.875 -44.21875 5.875 -47.34375 L 5.875 -92.734375 C 5.875 -96.265625 6.457031 -99.300781 7.625 -101.84375 C 8.800781 -104.382812 10.398438 -106.5 12.421875 -108.1875 C 14.441406 -109.882812 16.820312 -111.125 19.5625 -111.90625 C 22.300781 -112.695312 25.171875 -113.09375 28.171875 -113.09375 L 5.875 -117.59375 L 5.875 -136.953125 L 142.234375 -136.953125 Z M 142.234375 -117.59375 "/></g></g></g><g fill="#222222" fill-opacity="1"><g transform="translate(280.126562, 147.22767)"><g><path d="M 142.640625 -116.609375 C 142.640625 -112.691406 141.953125 -109.035156 140.578125 -105.640625 C 139.210938 -102.253906 137.351562 -99.351562 135 -96.9375 C 132.65625 -94.53125 129.851562 -92.707031 126.59375 -91.46875 C 123.332031 -90.226562 119.8125 -89.804688 116.03125 -90.203125 L 50.875 -98.03125 L 128.734375 -11.546875 L 78.0625 -77.671875 C 76.238281 -80.148438 75.75 -82.429688 76.59375 -84.515625 C 77.445312 -86.609375 79.375 -87.457031 82.375 -87.0625 L 142.640625 -79.046875 L 142.640625 0 L 61.625 0 C 53.9375 0 46.695312 -1.460938 39.90625 -4.390625 C 33.125 -7.328125 27.222656 -11.335938 22.203125 -16.421875 C 17.179688 -21.515625 13.203125 -27.453125 10.265625 -34.234375 C 7.335938 -41.015625 5.875 -48.253906 5.875 -55.953125 L 5.875 -89.421875 C 5.875 -95.941406 7.109375 -102.101562 9.578125 -107.90625 C 12.054688 -113.707031 15.445312 -118.757812 19.75 -123.0625 C 24.0625 -127.375 29.085938 -130.765625 34.828125 -133.234375 C 40.566406 -135.710938 46.695312 -136.953125 53.21875 -136.953125 L 142.640625 -136.953125 Z M 142.640625 -116.609375 "/></g></g></g></g></g></g></g></g></g></svg>